<svg xmlns="http://www.w3.org/2000/svg" xmlns:xlink="http://www.w3.org/1999/xlink" fill="none" version="1.1" width="289" height="36" viewBox="0 0 289 36"><g><g><path d="M13.7,14.86L13.7,22L14.79,22L14.79,16.63L14.83,16.63L18.52,22L19.58,22L19.58,14.86L18.490000000000002,14.86L18.490000000000002,20.17L18.45,20.17L14.8,14.86L13.7,14.86ZM20.89,16.83L20.89,20.05C20.89,21.439999999999998,21.509999999999998,22.14,22.759999999999998,22.14C23.41,22.14,23.95,21.86,24.39,21.3L24.39,22L25.45,22L25.45,16.83L24.39,16.83L24.39,19.990000000000002C24.3,20.369999999999997,24.130000000000003,20.68,23.89,20.91C23.65,21.130000000000003,23.4,21.25,23.119999999999997,21.25C22.71,21.25,22.41,21.14,22.23,20.939999999999998C22.04,20.740000000000002,21.95,20.42,21.95,19.98L21.95,16.83L20.89,16.83ZM29.14,16.69C28.619999999999997,16.69,28.14,16.92,27.72,17.4L27.72,16.83L26.66,16.83L26.66,22L27.72,22L27.72,18.89C27.72,18.53,27.82,18.22,28.04,17.97C28.240000000000002,17.71,28.52,17.58,28.86,17.58C29.56,17.58,29.92,17.98,29.92,18.8L29.92,22L30.98,22L30.98,18.82C30.98,18.439999999999998,31.08,18.130000000000003,31.28,17.91C31.48,17.69,31.72,17.58,32.019999999999996,17.58C32.42,17.58,32.72,17.67,32.9,17.87C33.08,18.060000000000002,33.17,18.369999999999997,33.17,18.79L33.17,22L34.230000000000004,22L34.230000000000004,18.61C34.230000000000004,18.03,34.05,17.57,33.71,17.22C33.36,16.86,32.92,16.69,32.39,16.69C32.04,16.69,31.75,16.75,31.51,16.88C31.25,17.009999999999998,31,17.240000000000002,30.77,17.56C30.45,16.98,29.9,16.69,29.14,16.69ZM35.43,14.719999999999999L35.43,22L36.42,22L36.42,21.380000000000003C36.78,21.880000000000003,37.31,22.14,38.019999999999996,22.14C38.78,22.14,39.370000000000005,21.869999999999997,39.81,21.33C40.21,20.83,40.41,20.18,40.41,19.39C40.41,18.630000000000003,40.21,18,39.82,17.5C39.39,16.96,38.81,16.69,38.07,16.69C37.43,16.69,36.91,16.990000000000002,36.489999999999995,17.6L36.489999999999995,14.719999999999999L35.43,14.719999999999999ZM37.83,17.55C38.35,17.55,38.739999999999995,17.72,38.989999999999995,18.08C39.21,18.380000000000003,39.32,18.82,39.32,19.39C39.32,19.96,39.21,20.4,39.010000000000005,20.72C38.760000000000005,21.09,38.379999999999995,21.28,37.86,21.28C37.4,21.28,37.04,21.09,36.79,20.73C36.57,20.4,36.46,19.98,36.46,19.46L36.46,19.369999999999997C36.46,18.810000000000002,36.59,18.36,36.870000000000005,18.02C37.11,17.7,37.43,17.55,37.83,17.55ZM43.6,16.69C42.84,16.69,42.230000000000004,16.95,41.79,17.48C41.33,18,41.11,18.64,41.11,19.41C41.11,20.259999999999998,41.35,20.93,41.83,21.43C42.269999999999996,21.9,42.879999999999995,22.14,43.64,22.14C44.33,22.14,44.9,21.939999999999998,45.35,21.55C45.71,21.23,45.94,20.82,46.06,20.34L45,20.34C44.86,20.64,44.71,20.869999999999997,44.53,21.009999999999998C44.3,21.18,44,21.27,43.629999999999995,21.27C43.21,21.27,42.879999999999995,21.130000000000003,42.64,20.869999999999997C42.4,20.6,42.269999999999996,20.21,42.230000000000004,19.71L46.15,19.71C46.14,18.79,45.93,18.07,45.53,17.55C45.09,16.97,44.44,16.69,43.6,16.69ZM43.629999999999995,17.56C44.47,17.56,44.94,18.009999999999998,45.04,18.91L42.25,18.91C42.31,18.47,42.46,18.14,42.68,17.91C42.92,17.67,43.230000000000004,17.56,43.629999999999995,17.56ZM49.45,16.69C49.13,16.69,48.85,16.78,48.61,16.98C48.41,17.12,48.24,17.33,48.11,17.61L48.11,16.83L47.05,16.83L47.05,22L48.11,22L48.11,19.259999999999998C48.11,18.810000000000002,48.24,18.439999999999998,48.51,18.16C48.76,17.9,49.05,17.77,49.37,17.77C49.61,17.77,49.86,17.8,50.12,17.88L50.12,16.82C49.94,16.73,49.71,16.69,49.45,16.69Z" fill="#9B9B9B" fill-opacity="1"/></g><g><path d="M137.32,14.86C137.08,15.120000000000001,136.78,15.35,136.42,15.57C136.06,15.77,135.73,15.91,135.41,15.99L135.41,17.07C136.07,16.88,136.62,16.58,137.05,16.17L137.05,22L138.14,22L138.14,14.86L137.32,14.86ZM142.08,14.719999999999999C141.24,14.719999999999999,140.59,15.07,140.13,15.780000000000001C139.71,16.43,139.5,17.31,139.5,18.43C139.5,19.54,139.71,20.42,140.13,21.08C140.59,21.78,141.24,22.14,142.08,22.14C142.92,22.14,143.57,21.78,144.03,21.08C144.45,20.42,144.66,19.53,144.66,18.43C144.66,17.32,144.45,16.44,144.03,15.780000000000001C143.57,15.07,142.92,14.719999999999999,142.08,14.719999999999999ZM142.08,15.64C142.66,15.64,143.08,15.96,143.32,16.61C143.49,17.05,143.58,17.66,143.58,18.43C143.58,19.189999999999998,143.49,19.8,143.32,20.25C143.08,20.89,142.66,21.22,142.08,21.22C141.49,21.22,141.08,20.89,140.84,20.25C140.66,19.8,140.58,19.189999999999998,140.58,18.43C140.58,17.66,140.66,17.05,140.84,16.61C141.08,15.96,141.49,15.64,142.08,15.64ZM148.08,14.719999999999999C147.24,14.719999999999999,146.59,15.07,146.13,15.780000000000001C145.71,16.43,145.5,17.31,145.5,18.43C145.5,19.54,145.71,20.42,146.13,21.08C146.59,21.78,147.24,22.14,148.08,22.14C148.92,22.14,149.57,21.78,150.03,21.08C150.45,20.42,150.66,19.53,150.66,18.43C150.66,17.32,150.45,16.44,150.03,15.780000000000001C149.57,15.07,148.92,14.719999999999999,148.08,14.719999999999999ZM148.08,15.64C148.66,15.64,149.08,15.96,149.32,16.61C149.49,17.05,149.58,17.66,149.58,18.43C149.58,19.189999999999998,149.49,19.8,149.32,20.25C149.08,20.89,148.66,21.22,148.08,21.22C147.49,21.22,147.08,20.89,146.84,20.25C146.66,19.8,146.58,19.189999999999998,146.58,18.43C146.58,17.66,146.66,17.05,146.84,16.61C147.08,15.96,147.49,15.64,148.08,15.64Z" fill="#9B9B9B" fill-opacity="1"/></g><g><path d="M246.09645385742186,14.86L246.09645385742186,19.28C246.09645385742186,20.21,246.35645385742188,20.92,246.87645385742186,21.42C247.37645385742186,21.9,248.09645385742186,22.14,249.04645385742188,22.14C249.98645385742188,22.14,250.70645385742188,21.89,251.21645385742187,21.41C251.7264538574219,20.92,251.98645385742188,20.21,251.98645385742188,19.28L251.98645385742188,14.86L250.89645385742188,14.86L250.89645385742188,19.3C250.89645385742188,19.939999999999998,250.74645385742187,20.41,250.45645385742188,20.72C250.15645385742187,21.03,249.68645385742187,21.189999999999998,249.04645385742188,21.189999999999998C248.39645385742188,21.189999999999998,247.92645385742188,21.03,247.62645385742186,20.72C247.32645385742188,20.41,247.18645385742187,19.939999999999998,247.18645385742187,19.3L247.18645385742187,14.86L246.09645385742186,14.86ZM255.88645385742188,14.719999999999999C255.12645385742186,14.719999999999999,254.49645385742187,14.89,253.99645385742187,15.23C253.46645385742187,15.59,253.20645385742188,16.08,253.20645385742188,16.71C253.20645385742188,17.33,253.4764538574219,17.81,254.02645385742187,18.14C254.24645385742187,18.259999999999998,254.78645385742186,18.45,255.66645385742189,18.73C256.4564538574219,18.97,256.92645385742185,19.130000000000003,257.0864538574219,19.21C257.53645385742186,19.439999999999998,257.7664538574219,19.75,257.7664538574219,20.15C257.7664538574219,20.47,257.60645385742185,20.72,257.28645385742186,20.9C256.96645385742187,21.08,256.53645385742186,21.18,255.99645385742187,21.18C255.39645385742188,21.18,254.95645385742188,21.07,254.66645385742189,20.85C254.34645385742186,20.61,254.14645385742188,20.2,254.06645385742186,19.64L252.98645385742188,19.64C253.04645385742188,20.54,253.36645385742187,21.2,253.95645385742188,21.619999999999997C254.4464538574219,21.96,255.12645385742186,22.14,255.99645385742187,22.14C256.8964538574219,22.14,257.59645385742186,21.96,258.09645385742186,21.6C258.59645385742186,21.23,258.84645385742186,20.73,258.84645385742186,20.09C258.84645385742186,19.43,258.53645385742186,18.92,257.92645385742185,18.55C257.6464538574219,18.380000000000003,257.0164538574219,18.15,256.0564538574219,17.85C255.38645385742188,17.65,254.9764538574219,17.5,254.81645385742186,17.41C254.45645385742188,17.22,254.28645385742186,16.97,254.28645385742186,16.65C254.28645385742186,16.29,254.43645385742187,16.03,254.74645385742187,15.870000000000001C254.99645385742187,15.73,255.35645385742188,15.66,255.82645385742188,15.66C256.3664538574219,15.66,256.7664538574219,15.76,257.04645385742185,15.969999999999999C257.3264538574219,16.17,257.5064538574219,16.509999999999998,257.60645385742185,16.97L258.6864538574219,16.97C258.6164538574219,16.19,258.3364538574219,15.620000000000001,257.8364538574219,15.25C257.3664538574219,14.89,256.71645385742187,14.719999999999999,255.88645385742188,14.719999999999999ZM259.85645385742185,14.86L259.85645385742185,22L262.4364538574219,22C263.5864538574219,22,264.4564538574219,21.68,265.0564538574219,21.04C265.6264538574219,20.42,265.91645385742186,19.55,265.91645385742186,18.43C265.91645385742186,17.3,265.6364538574219,16.43,265.0764538574219,15.83C264.47645385742186,15.18,263.60645385742185,14.86,262.4564538574219,14.86L259.85645385742185,14.86ZM260.9464538574219,15.79L262.2564538574219,15.79C263.15645385742187,15.79,263.8164538574219,16,264.23645385742185,16.43C264.6364538574219,16.85,264.84645385742186,17.509999999999998,264.84645385742186,18.43C264.84645385742186,19.33,264.6364538574219,19.990000000000002,264.22645385742186,20.42C263.8064538574219,20.85,263.1364538574219,21.07,262.23645385742185,21.07L260.9464538574219,21.07L260.9464538574219,15.79ZM266.47645385742186,14.86L266.47645385742186,15.79L268.8664538574219,15.79L268.8664538574219,22L269.9464538574219,22L269.9464538574219,15.79L272.3264538574219,15.79L272.3264538574219,14.86L266.47645385742186,14.86Z" fill="#9B9B9B" fill-opacity="1"/></g><g><g><rect x="0" y="0" width="289" height="36" rx="8" fill="#00C594" fill-opacity="0"/><rect x="0.5" y="0.5" width="288" height="35" rx="7.5" fill-opacity="0" stroke-opacity="1" stroke="#B9B9B9" fill="none" stroke-width="1"/></g></g></g></svg>