<svg xmlns="http://www.w3.org/2000/svg" xmlns:xlink="http://www.w3.org/1999/xlink" fill="none" version="1.1" width="287" height="11" viewBox="0 0 287 11"><defs><clipPath id="master_svg0_17_0764/1_6502"><rect x="0" y="2" width="285" height="8" rx="4"/></clipPath><clipPath id="master_svg1_17_0764/1_6501"><rect x="0" y="2" width="11.399999618530273" height="8" rx="4"/></clipPath></defs><g><g><g clip-path="url(#master_svg0_17_0764/1_6502)"><rect x="0" y="2" width="285" height="8" rx="4" fill="#F4F4F4" fill-opacity="1"/></g><g clip-path="url(#master_svg1_17_0764/1_6501)"><rect x="0" y="2" width="11.399999618530273" height="8" rx="4" fill="#13F3DD" fill-opacity="1"/></g></g><g><ellipse cx="281.5" cy="5.5" rx="5.5" ry="5.5" fill="#13F3DD" fill-opacity="1"/><path d="M287,5.5Q287,5.63502,286.9934,5.76987Q286.9867,5.90473,286.9735,6.03909Q286.9603,6.17346,286.9405,6.30702Q286.9207,6.44057,286.8943,6.573Q286.868,6.70542,286.8352,6.83639Q286.8024,6.96736,286.7632,7.09657Q286.724,7.22577,286.6785,7.35289Q286.633,7.48002,286.5813,7.60476Q286.5297,7.7295,286.4719,7.85155Q286.4142,7.97361,286.3506,8.09268Q286.2869,8.21176,286.2175,8.32756Q286.1481,8.44337,286.0731,8.55564Q285.99807,8.6679,285.91764,8.77635Q285.83721,8.88479,285.75156,8.98916Q285.6659,9.09353,285.57523,9.19357Q285.48456,9.29361,285.38909,9.38909Q285.29361,9.48456,285.19357,9.57523Q285.09353,9.6659,284.98916,9.75156Q284.88479,9.83721,284.77635,9.91764Q284.6679,9.99807,284.55564,10.0731Q284.44337,10.1481,284.32756,10.2175Q284.21176,10.2869,284.09268,10.3506Q283.97361,10.4142,283.85155,10.4719Q283.7295,10.5297,283.60476,10.5813Q283.48002,10.633,283.35289,10.6785Q283.22577,10.724,283.09657,10.7632Q282.96736,10.8024,282.83639,10.8352Q282.70542,10.868,282.573,10.8943Q282.44057,10.9207,282.30702,10.9405Q282.17346,10.9603,282.03909,10.9735Q281.90473,10.9867,281.76987,10.9934Q281.63502,11,281.5,11Q281.36498,11,281.23013,10.9934Q281.09527,10.9867,280.96091,10.9735Q280.82654,10.9603,280.69298,10.9405Q280.55943,10.9207,280.427,10.8943Q280.29458,10.868,280.16361,10.8352Q280.03264,10.8024,279.90343,10.7632Q279.77423,10.724,279.64711,10.6785Q279.51998,10.633,279.39524,10.5813Q279.2705,10.5297,279.14845,10.4719Q279.02639,10.4142,278.90732,10.3506Q278.78824,10.2869,278.67243,10.2175Q278.55663,10.1481,278.44436,10.0731Q278.3321,9.99807,278.22365,9.91764Q278.11521,9.83721,278.01084,9.75156Q277.90647,9.6659,277.80643,9.57523Q277.70638,9.48456,277.61091,9.38909Q277.51544,9.29361,277.42477,9.19357Q277.3341,9.09353,277.24844,8.98916Q277.16279,8.88479,277.08236,8.77635Q277.00193,8.6679,276.926917,8.55564Q276.851905,8.44337,276.782493,8.32756Q276.71308,8.21176,276.649433,8.09268Q276.585786,7.97361,276.528059,7.85155Q276.470331,7.7295,276.418662,7.60476Q276.366994,7.48002,276.321508,7.35289Q276.276022,7.22577,276.236828,7.09657Q276.197635,6.96736,276.164828,6.83639Q276.132022,6.70542,276.105681,6.573Q276.0793403,6.44057,276.0595292,6.30702Q276.039718,6.17346,276.026484,6.03909Q276.01325,5.90473,276.00662499,5.76987Q276,5.63502,276,5.5Q276,5.36498,276.00662499,5.23013Q276.01325,5.09527,276.026484,4.96091Q276.039718,4.82654,276.0595292,4.69298Q276.0793403,4.55943,276.105681,4.427Q276.132022,4.29458,276.164828,4.16361Q276.197635,4.03264,276.236828,3.90343Q276.276022,3.77423,276.321508,3.64711Q276.366994,3.51998,276.418662,3.39524Q276.470331,3.2705,276.528059,3.14845Q276.585786,3.02639,276.649433,2.90732Q276.71308,2.78824,276.782493,2.67243Q276.851905,2.55663,276.926917,2.44436Q277.00193,2.3321,277.08236,2.22365Q277.16279,2.11521,277.24844,2.01084Q277.3341,1.90647,277.42477,1.80643Q277.51544,1.70638,277.61091,1.61091Q277.70638,1.51544,277.80643,1.42477Q277.90647,1.3341,278.01084,1.24844Q278.11521,1.16279,278.22365,1.08236Q278.3321,1.00193,278.44436,0.926917Q278.55663,0.851905,278.67243,0.782493Q278.78824,0.71308,278.90732,0.649433Q279.02639,0.585786,279.14845,0.528059Q279.2705,0.470331,279.39524,0.418662Q279.51998,0.366994,279.64711,0.321508Q279.77423,0.276022,279.90343,0.236828Q280.03264,0.197635,280.16361,0.164828Q280.29458,0.132022,280.427,0.105681Q280.55943,0.0793403,280.69298,0.0595292Q280.82654,0.039718,280.96091,0.026484Q281.09527,0.01325,281.23013,0.00662499Q281.36498,0,281.5,0Q281.63502,0,281.76987,0.00662499Q281.90473,0.01325,282.03909,0.026484Q282.17346,0.039718,282.30702,0.0595292Q282.44057,0.0793403,282.573,0.105681Q282.70542,0.132022,282.83639,0.164828Q282.96736,0.197635,283.09657,0.236828Q283.22577,0.276022,283.35289,0.321508Q283.48002,0.366994,283.60476,0.418662Q283.7295,0.470331,283.85155,0.528059Q283.97361,0.585786,284.09268,0.649433Q284.21176,0.71308,284.32756,0.782493Q284.44337,0.851905,284.55564,0.926917Q284.6679,1.00193,284.77635,1.08236Q284.88479,1.16279,284.98916,1.24844Q285.09353,1.3341,285.19357,1.42477Q285.29361,1.51544,285.38909,1.61091Q285.48456,1.70638,285.57523,1.80643Q285.6659,1.90647,285.75156,2.01084Q285.83721,2.11521,285.91764,2.22365Q285.99807,2.3321,286.0731,2.44436Q286.1481,2.55663,286.2175,2.67243Q286.2869,2.78824,286.3506,2.90732Q286.4142,3.02639,286.4719,3.14845Q286.5297,3.2705,286.5813,3.39524Q286.633,3.51998,286.6785,3.64711Q286.724,3.77423,286.7632,3.90343Q286.8024,4.03264,286.8352,4.16361Q286.868,4.29458,286.8943,4.427Q286.9207,4.55943,286.9405,4.69298Q286.9603,4.82654,286.9735,4.96091Q286.9867,5.09527,286.9934,5.23013Q287,5.36498,287,5.5ZM286,5.5Q286,5.38953,285.99458,5.2792Q285.98916,5.16886,285.97833,5.05892Q285.9675,4.94899,285.95129,4.83971Q285.93507999999997,4.73044,285.91353,4.62209Q285.89198,4.51375,285.86514,4.40659Q285.8383,4.29943,285.80623,4.19372Q285.77416,4.08801,285.73695,3.98399Q285.69973,3.87998,285.65746,3.77792Q285.61518,3.67586,285.56795,3.576Q285.52072,3.47614,285.46865,3.37871Q285.41657,3.28129,285.35978,3.18654Q285.30299,3.09178,285.24161,2.99993Q285.18024,2.90808,285.11443,2.81935Q285.04863,2.73062,284.97855,2.64523Q284.90847,2.55984,284.83428,2.47798Q284.76009,2.39613,284.68198,2.31802Q284.60387000000003,2.23991,284.52202,2.16572Q284.44016,2.09153,284.35477,2.02145Q284.26937,1.95137,284.18065,1.88557Q284.09192,1.81976,284.00006,1.75839Q283.90821,1.69701,283.81346,1.64022Q283.71871,1.58343,283.62128,1.53135Q283.52386,1.47928,283.424,1.43205Q283.32413,1.38482,283.22207,1.34254Q283.12002,1.30027,283.016,1.26305Q282.91199,1.22584,282.80628,1.19377Q282.70057,1.1617,282.59341,1.13486Q282.48625,1.10802,282.37791,1.08647Q282.26956,1.06491,282.16029,1.04871Q282.05101,1.0325,281.94108,1.02167Q281.83114,1.01084,281.7208,1.00542Q281.61047,1,281.5,1Q281.38953,1,281.2792,1.00542Q281.16886,1.01084,281.05892,1.02167Q280.94899,1.0325,280.83971,1.04871Q280.73044,1.06491,280.62209,1.08647Q280.51375,1.10802,280.40659,1.13486Q280.29943,1.1617,280.19372,1.19377Q280.08801,1.22584,279.98399,1.26305Q279.87998,1.30027,279.77792,1.34254Q279.67586,1.38482,279.576,1.43205Q279.47614,1.47928,279.37871,1.53135Q279.28129,1.58343,279.18654,1.64022Q279.09177999999997,1.69701,278.99993,1.75839Q278.90808,1.81976,278.81935,1.88557Q278.73062,1.95137,278.64523,2.02145Q278.55984,2.09153,278.47798,2.16572Q278.39613,2.23991,278.31802,2.31802Q278.23991,2.39613,278.16572,2.47798Q278.09153,2.55984,278.02145,2.64523Q277.95137,2.73062,277.88557,2.81935Q277.81976,2.90808,277.75839,2.99993Q277.69701,3.09178,277.64022,3.18654Q277.58343,3.28129,277.53135,3.37871Q277.47928,3.47614,277.43205,3.576Q277.38482,3.67586,277.34254,3.77792Q277.30027,3.87998,277.26305,3.98399Q277.22584,4.08801,277.19377,4.19372Q277.1617,4.29943,277.13486,4.40659Q277.10802,4.51375,277.08647,4.62209Q277.06491,4.73044,277.04871,4.83971Q277.0325,4.94899,277.02167,5.05892Q277.01084,5.16886,277.00542,5.2792Q277,5.38953,277,5.5Q277,5.61047,277.00542,5.7208Q277.01084,5.83114,277.02167,5.94108Q277.0325,6.05101,277.04871,6.16029Q277.06491,6.26956,277.08647,6.37791Q277.10802,6.48625,277.13486,6.59341Q277.1617,6.70057,277.19377,6.80628Q277.22584,6.91199,277.26305,7.016Q277.30027,7.12002,277.34254,7.22207Q277.38482,7.32413,277.43205,7.424Q277.47928,7.52386,277.53135,7.62129Q277.58343,7.71871,277.64022,7.81346Q277.69701,7.90821,277.75839,8.00007Q277.81976,8.09192,277.88557,8.18065Q277.95137,8.26937,278.02145,8.35477Q278.09153,8.44016,278.16572,8.52202Q278.23991,8.60387,278.31802,8.68198Q278.39613,8.76009,278.47798,8.83428Q278.55984,8.90847,278.64523,8.97855Q278.73062,9.04863,278.81935,9.11443Q278.90808,9.18024,278.99993,9.24161Q279.09177999999997,9.30299,279.18654,9.35978Q279.28129,9.41657,279.37871,9.46865Q279.47614,9.52072,279.576,9.56795Q279.67586,9.61518,279.77792,9.65746Q279.87998,9.69973,279.98399,9.73695Q280.08801,9.77416,280.19372,9.80623Q280.29943,9.8383,280.40659,9.86514Q280.51375,9.89198,280.62209,9.91353Q280.73044,9.93508,280.83971,9.95129Q280.94899,9.9675,281.05892,9.97833Q281.16886,9.98916,281.2792,9.99458Q281.38953,10,281.5,10Q281.61047,10,281.7208,9.99458Q281.83114,9.98916,281.94108,9.97833Q282.05101,9.9675,282.16029,9.95129Q282.26956,9.93508,282.37791,9.91353Q282.48625,9.89198,282.59341,9.86514Q282.70057,9.8383,282.80628,9.80623Q282.91199,9.77416,283.016,9.73695Q283.12002,9.69973,283.22207,9.65746Q283.32413,9.61518,283.424,9.56795Q283.52386,9.52072,283.62129,9.46865Q283.71871,9.41657,283.81346,9.35978Q283.90821,9.30299,284.00007,9.24161Q284.09192,9.18024,284.18065,9.11443Q284.26937,9.04863,284.35477,8.97855Q284.44016,8.90847,284.52202,8.83428Q284.60387000000003,8.76009,284.68198,8.68198Q284.76009,8.60387,284.83428,8.52202Q284.90847,8.44016,284.97855,8.35477Q285.04863,8.26937,285.11443,8.18065Q285.18024,8.09192,285.24161,8.00006Q285.30299,7.90821,285.35978,7.81346Q285.41657,7.71871,285.46865,7.62128Q285.52072,7.52386,285.56795,7.424Q285.61518,7.32413,285.65746,7.22207Q285.69973,7.12002,285.73695,7.016Q285.77416,6.91199,285.80623,6.80628Q285.8383,6.70057,285.86514,6.59341Q285.89198,6.48625,285.91353,6.37791Q285.93507999999997,6.26956,285.95129,6.16029Q285.9675,6.05101,285.97833,5.94108Q285.98916,5.83114,285.99458,5.7208Q286,5.61047,286,5.5Z" fill="#13F3DD" fill-opacity="1"/></g></g></svg>