<svg xmlns="http://www.w3.org/2000/svg" xmlns:xlink="http://www.w3.org/1999/xlink" fill="none" version="1.1" width="13.257575988769531" height="16" viewBox="0 0 13.257575988769531 16"><g><path d="M2.94601,3.2L2.94601,0.8C2.94601,0.358176,3.27578,0,3.68255,0L12.521,0C12.9278,0,13.2576,0.358176,13.2576,0.8L13.2576,12C13.2576,12.4418,12.9278,12.8,12.521,12.8L10.3114,12.8L10.3114,15.1993C10.3114,15.6415,9.98005,16,9.56987,16L0.741446,16C0.331878,16,0,15.6443,0,15.1993L0.00191497,4.0007C0.00198873,3.55849,0.333388,3.2,0.743478,3.2L2.94601,3.2ZM4.41909,3.2L10.3114,3.2L10.3114,11.2L11.7845,11.2L11.7845,1.6L4.41909,1.6L4.41909,3.2Z" fill="#44F3FA" fill-opacity="1" style="mix-blend-mode:passthrough"/></g></svg>