<svg xmlns="http://www.w3.org/2000/svg" xmlns:xlink="http://www.w3.org/1999/xlink" fill="none" version="1.1" width="375" height="555" viewBox="50 0 375 555"><defs><linearGradient x1="0.3486770689487457" y1="-0.2778416574001312" x2="0.81672142645012" y2="0.5015243792364421" id="master_svg0_17_16622"><stop offset="0%" stop-color="#00092C" stop-opacity="1"/><stop offset="52.054792642593384%" stop-color="#44F3FA" stop-opacity="1"/><stop offset="100%" stop-color="#011318" stop-opacity="1"/></linearGradient></defs><g><g transform="matrix(1,0,0,-1,0,1110)"><path d="M0,768.885L375,768.885L375,565.1116C324.325,547.57782,279.587,556.16771,228.396,565.9964C168.016,577.5894,98.6605,590.9058,0,565.1116L0,768.885Z" fill="url(#master_svg0_17_16622)" fill-opacity="1"/></g><g transform="matrix(1,0,0,-1,0,1090.9658203125)"><g><path d="M0,760.87091015625L375,760.87091015625L375,556.72001015625C319.148,537.46079015625,254.829,546.81780015625,189.7,556.29271015625C124.742,565.74291015625,58.9763,575.31041015625,0,556.72001015625L0,760.87091015625Z" fill="#FFFFFF" fill-opacity="1"/></g><g><path d="M0,1090.9654344482421L375,1090.9654344482421L375,634.7120344482422C319.148,591.6699344482422,254.829,612.5817544482422,189.7,633.7571344482421C124.742,654.8772344482422,58.9763,676.2594344482422,0,634.7120344482422L0,1090.9654344482421Z" fill="#FFFFFF" fill-opacity="1"/></g></g></g></svg>