<svg xmlns="http://www.w3.org/2000/svg" xmlns:xlink="http://www.w3.org/1999/xlink" fill="none" version="1.1" width="190" height="88" viewBox="0 0 190 88"><defs><filter id="master_svg0_17_9903" filterUnits="objectBoundingBox" color-interpolation-filters="sRGB" x="-0.125" y="0" width="1.25" height="2.1136363636363638"><feFlood flood-opacity="0" result="BackgroundImageFix"/><feColorMatrix in="SourceAlpha" type="matrix" values="0 0 0 0 0 0 0 0 0 0 0 0 0 0 0 0 0 0 127 0"/><feOffset dy="29" dx="0"/><feGaussianBlur stdDeviation="5"/><feColorMatrix type="matrix" values="0 0 0 0 0 0 0 0 0 0 0 0 0 0 0 0 0 0 0 0"/><feBlend mode="normal" in2="BackgroundImageFix" result="effect1_dropShadow"/><feBlend mode="normal" in="SourceGraphic" in2="effect1_dropShadow" result="shape"/></filter></defs><g><g filter="url(#master_svg0_17_9903)"><rect x="15" y="0" width="160" height="44" rx="9" fill="#FFFFFF" fill-opacity="0.1899999976158142"/><rect x="15.5" y="0.5" width="159" height="43" rx="8.5" fill-opacity="0" stroke-opacity="1" stroke="#44F3FA" fill="none" stroke-width="1"/></g><g><path d="M53.018,17.432000000000002L53.018,26L54.422,26L54.422,17.432000000000002L53.018,17.432000000000002ZM59.186,19.628C58.814,19.628,58.478,19.7,58.166,19.856C57.866,20,57.59,20.228,57.35,20.516L57.35,19.796L55.982,19.796L55.982,26L57.35,26L57.35,22.268C57.397999999999996,21.776,57.566,21.392,57.854,21.128C58.106,20.887999999999998,58.406,20.768,58.742000000000004,20.768C59.678,20.768,60.146,21.272,60.146,22.292L60.146,26L61.513999999999996,26L61.513999999999996,22.172C61.513999999999996,20.468,60.734,19.628,59.186,19.628ZM62.294,19.796L64.586,26L65.95400000000001,26L68.246,19.796L66.758,19.796L65.27,24.296L63.782,19.796L62.294,19.796ZM69.95,17.264C69.686,17.264,69.47,17.348,69.28999999999999,17.516C69.11,17.683999999999997,69.026,17.9,69.026,18.164C69.026,18.428,69.11,18.644,69.28999999999999,18.823999999999998C69.47,18.992,69.686,19.076,69.95,19.076C70.214,19.076,70.43,18.992,70.61,18.823999999999998C70.78999999999999,18.656,70.886,18.428,70.886,18.164C70.886,17.9,70.78999999999999,17.683999999999997,70.622,17.516C70.44200000000001,17.348,70.214,17.264,69.95,17.264ZM69.26599999999999,19.796L69.26599999999999,26L70.634,26L70.634,19.796L69.26599999999999,19.796ZM74.27000000000001,17.792L72.902,18.356L72.902,19.796L71.786,19.796L71.786,20.924L72.902,20.924L72.902,24.428C72.902,24.932,73.02199999999999,25.304,73.262,25.568C73.51400000000001,25.856,73.91,26,74.45,26L75.494,26L75.494,24.872L74.678,24.872C74.53399999999999,24.872,74.438,24.836,74.366,24.764C74.294,24.68,74.27000000000001,24.572,74.27000000000001,24.428L74.27000000000001,20.924L75.65,20.924L75.65,19.796L74.27000000000001,19.796L74.27000000000001,17.792ZM79.31,19.628C78.386,19.628,77.654,19.939999999999998,77.126,20.576C76.574,21.2,76.31,21.968,76.31,22.892C76.31,23.924,76.598,24.728,77.174,25.316C77.714,25.88,78.446,26.168,79.37,26.168C80.19800000000001,26.168,80.882,25.928,81.434,25.46C81.866,25.076,82.154,24.584,82.298,24.008L80.93,24.008C80.762,24.356,80.582,24.608,80.378,24.764C80.114,24.956,79.77799999999999,25.052,79.358,25.052C78.866,25.052,78.482,24.896,78.218,24.596C77.95400000000001,24.296,77.798,23.852,77.75,23.276L82.394,23.276C82.394,22.16,82.142,21.284,81.65,20.66C81.11,19.964,80.33,19.628,79.31,19.628ZM79.346,20.744C80.306,20.744,80.846,21.236,80.96600000000001,22.244L77.774,22.244C77.858,21.752000000000002,78.02600000000001,21.380000000000003,78.27799999999999,21.128C78.542,20.864,78.89,20.744,79.346,20.744ZM87.59,17.432000000000002L87.59,26L88.994,26L88.994,22.208L93.182,22.208L93.182,21.008L88.994,21.008L88.994,18.631999999999998L93.434,18.631999999999998L93.434,17.432000000000002L87.59,17.432000000000002ZM97.382,19.628C96.99799999999999,19.628,96.674,19.736,96.398,19.964C96.17,20.131999999999998,95.97800000000001,20.372,95.81,20.683999999999997L95.81,19.796L94.45400000000001,19.796L94.45400000000001,26L95.81,26L95.81,22.712C95.81,22.184,95.96600000000001,21.764,96.30199999999999,21.439999999999998C96.59,21.152,96.914,21.02,97.274,21.02C97.562,21.02,97.85,21.055999999999997,98.162,21.152L98.162,19.784C97.946,19.676000000000002,97.682,19.628,97.382,19.628ZM99.866,17.264C99.602,17.264,99.386,17.348,99.206,17.516C99.02600000000001,17.683999999999997,98.94200000000001,17.9,98.94200000000001,18.164C98.94200000000001,18.428,99.02600000000001,18.644,99.206,18.823999999999998C99.386,18.992,99.602,19.076,99.866,19.076C100.13,19.076,100.346,18.992,100.52600000000001,18.823999999999998C100.706,18.656,100.80199999999999,18.428,100.80199999999999,18.164C100.80199999999999,17.9,100.706,17.683999999999997,100.538,17.516C100.358,17.348,100.13,17.264,99.866,17.264ZM99.182,19.796L99.182,26L100.55,26L100.55,19.796L99.182,19.796ZM104.882,19.628C103.958,19.628,103.226,19.939999999999998,102.69800000000001,20.576C102.146,21.2,101.882,21.968,101.882,22.892C101.882,23.924,102.17,24.728,102.74600000000001,25.316C103.286,25.88,104.018,26.168,104.942,26.168C105.77,26.168,106.454,25.928,107.006,25.46C107.438,25.076,107.726,24.584,107.87,24.008L106.502,24.008C106.334,24.356,106.154,24.608,105.95,24.764C105.686,24.956,105.35,25.052,104.93,25.052C104.438,25.052,104.054,24.896,103.79,24.596C103.526,24.296,103.37,23.852,103.322,23.276L107.966,23.276C107.966,22.16,107.714,21.284,107.222,20.66C106.682,19.964,105.902,19.628,104.882,19.628ZM104.918,20.744C105.878,20.744,106.418,21.236,106.538,22.244L103.346,22.244C103.43,21.752000000000002,103.598,21.380000000000003,103.85,21.128C104.114,20.864,104.462,20.744,104.918,20.744ZM112.25,19.628C111.878,19.628,111.542,19.7,111.23,19.856C110.93,20,110.654,20.228,110.414,20.516L110.414,19.796L109.046,19.796L109.046,26L110.414,26L110.414,22.268C110.462,21.776,110.63,21.392,110.918,21.128C111.17,20.887999999999998,111.47,20.768,111.806,20.768C112.742,20.768,113.21,21.272,113.21,22.292L113.21,26L114.578,26L114.578,22.172C114.578,20.468,113.798,19.628,112.25,19.628ZM120.434,17.264L120.434,20.648C119.918,19.964,119.306,19.628,118.586,19.628C117.698,19.628,116.99,19.951999999999998,116.486,20.6C116.006,21.2,115.778,21.956,115.778,22.868C115.778,23.816,116.018,24.596,116.498,25.196C117.014,25.844,117.734,26.168,118.658,26.168C119.474,26.168,120.098,25.892,120.53,25.34L120.53,26L121.802,26L121.802,17.264L120.434,17.264ZM118.91,20.732C119.342,20.732,119.714,20.912,120.002,21.272C120.314,21.656,120.482,22.184,120.482,22.844L120.482,22.94C120.482,23.54,120.35,24.044,120.098,24.428C119.81,24.848,119.39,25.064,118.862,25.064C118.25,25.064,117.806,24.848,117.53,24.416C117.29,24.056,117.182,23.54,117.182,22.868C117.182,22.196,117.302,21.692,117.554,21.344C117.842,20.936,118.286,20.732,118.91,20.732ZM125.582,19.628C124.814,19.628,124.202,19.784,123.734,20.119999999999997C123.254,20.432000000000002,123.026,20.875999999999998,123.026,21.451999999999998C123.026,21.992,123.266,22.412,123.746,22.712C124.046,22.904,124.562,23.084,125.294,23.252C125.918,23.396,126.326,23.504,126.518,23.6C126.878,23.768,127.058,23.996,127.058,24.284C127.058,24.788,126.578,25.052,125.618,25.052C125.162,25.052,124.838,24.968,124.634,24.824C124.43,24.656,124.286,24.38,124.214,23.984L122.882,23.984C123.014,25.436,123.938,26.168,125.666,26.168C127.526,26.168,128.462,25.508,128.462,24.188C128.462,23.636,128.20999999999998,23.192,127.718,22.88C127.382,22.652,126.854,22.46,126.158,22.292C125.534,22.136,125.126,22.016,124.922,21.932000000000002C124.586,21.788,124.43,21.608,124.43,21.416C124.43,21.176000000000002,124.526,21.008,124.742,20.9C124.922,20.792,125.198,20.744,125.558,20.744C125.978,20.744,126.29,20.804000000000002,126.494,20.936C126.686,21.055999999999997,126.83,21.284,126.926,21.596L128.25799999999998,21.596C128.114,20.276,127.214,19.628,125.582,19.628Z" fill="#FFFFFF" fill-opacity="1"/></g></g></svg>