<svg xmlns="http://www.w3.org/2000/svg" xmlns:xlink="http://www.w3.org/1999/xlink" fill="none" version="1.1" width="113" height="21" viewBox="0 0 113 21"><g><g><rect x="0" y="0" width="113" height="21" rx="9" fill="#44F3FA" fill-opacity="1"/></g><g><path d="M13.18,5.992C11.926,5.992,10.969,6.399,10.309,7.235C9.725999999999999,7.961,9.44,8.918,9.44,10.084C9.44,11.272,9.715,12.218,10.276,12.922C10.914,13.736,11.893,14.154,13.202,14.154C14.049,14.154,14.775,13.912,15.379999999999999,13.428C16.029,12.911,16.436,12.196,16.612000000000002,11.272L15.358,11.272C15.204,11.866,14.940000000000001,12.317,14.565999999999999,12.614C14.214,12.878,13.751999999999999,13.021,13.190999999999999,13.021C12.333,13.021,11.695,12.746,11.288,12.218C10.914,11.723,10.727,11.008,10.727,10.084C10.727,9.182,10.914,8.478,11.299,7.972C11.717,7.4,12.333,7.125,13.158000000000001,7.125C13.708,7.125,14.158999999999999,7.235,14.511,7.477C14.873999999999999,7.719,15.116,8.093,15.248000000000001,8.61L16.502,8.61C16.381,7.818,16.04,7.18,15.468,6.718C14.873999999999999,6.234,14.104,5.992,13.18,5.992ZM20.352,8.159C19.483,8.159,18.79,8.434,18.273,9.006C17.744999999999997,9.567,17.492,10.282,17.492,11.162C17.492,12.031,17.744999999999997,12.746,18.262,13.296C18.79,13.868,19.483,14.154,20.352,14.154C21.21,14.154,21.914,13.868,22.442,13.296C22.948,12.746,23.212,12.031,23.212,11.162C23.212,10.282,22.948,9.567,22.430999999999997,9.006C21.903,8.434,21.21,8.159,20.352,8.159ZM20.352,9.182C20.869,9.182,21.276,9.38,21.561999999999998,9.798C21.804000000000002,10.15,21.936,10.612,21.936,11.162C21.936,11.701,21.804000000000002,12.152,21.561999999999998,12.515C21.276,12.922,20.869,13.131,20.352,13.131C19.823999999999998,13.131,19.428,12.922,19.142,12.515C18.9,12.163,18.779,11.712,18.779,11.162C18.779,10.612,18.9,10.15,19.142,9.798C19.428,9.38,19.823999999999998,9.182,20.352,9.182ZM27.249,8.159C26.908,8.159,26.6,8.225,26.314,8.368C26.039,8.5,25.786,8.709,25.566,8.973L25.566,8.313L24.311999999999998,8.313L24.311999999999998,14L25.566,14L25.566,10.579C25.61,10.128,25.764,9.776,26.028,9.534C26.259,9.314,26.534,9.204,26.842,9.204C27.7,9.204,28.129,9.666,28.129,10.601L28.129,14L29.383,14L29.383,10.491C29.383,8.929,28.668,8.159,27.249,8.159ZM33.64,8.159C33.299,8.159,32.991,8.225,32.705,8.368C32.43,8.5,32.177,8.709,31.957,8.973L31.957,8.313L30.703,8.313L30.703,14L31.957,14L31.957,10.579C32.001000000000005,10.128,32.155,9.776,32.419,9.534C32.65,9.314,32.925,9.204,33.233000000000004,9.204C34.091,9.204,34.519999999999996,9.666,34.519999999999996,10.601L34.519999999999996,14L35.774,14L35.774,10.491C35.774,8.929,35.059,8.159,33.64,8.159ZM39.513999999999996,8.159C38.667,8.159,37.995999999999995,8.445,37.512,9.028C37.006,9.6,36.763999999999996,10.304,36.763999999999996,11.151C36.763999999999996,12.097,37.028,12.834,37.556,13.373C38.051,13.89,38.722,14.154,39.569,14.154C40.328,14.154,40.955,13.934,41.461,13.505C41.857,13.153,42.121,12.702,42.253,12.174L40.998999999999995,12.174C40.845,12.493,40.68,12.724,40.492999999999995,12.867C40.251000000000005,13.043,39.943,13.131,39.558,13.131C39.107,13.131,38.754999999999995,12.988,38.513000000000005,12.713C38.271,12.438,38.128,12.031,38.084,11.503L42.341,11.503C42.341,10.48,42.11,9.677,41.659,9.105C41.164,8.467,40.449,8.159,39.513999999999996,8.159ZM39.547,9.182C40.427,9.182,40.922,9.633,41.032,10.557L38.106,10.557C38.183,10.106,38.337,9.765,38.568,9.534C38.81,9.292,39.129000000000005,9.182,39.547,9.182ZM45.883,8.159C44.992,8.159,44.299,8.456,43.804,9.05C43.342,9.589,43.111,10.293,43.111,11.151C43.111,12.031,43.342,12.746,43.815,13.296C44.299,13.868,44.981,14.154,45.861,14.154C46.598,14.154,47.192,13.967,47.632,13.604C48.083,13.23,48.38,12.658,48.512,11.888L47.269,11.888C47.17,12.713,46.708,13.131,45.872,13.131C45.388,13.131,45.025,12.955,44.783,12.614C44.519,12.262,44.398,11.767,44.398,11.14C44.398,10.524,44.53,10.04,44.794,9.699C45.058,9.347,45.421,9.182,45.883,9.182C46.257,9.182,46.565,9.27,46.796,9.446C47.016,9.622,47.17,9.886,47.247,10.249L48.49,10.249C48.38,9.534,48.094,9.006,47.643,8.654C47.203,8.324,46.62,8.159,45.883,8.159ZM51.284,6.476L50.03,6.993L50.03,8.313L49.007,8.313L49.007,9.347L50.03,9.347L50.03,12.559C50.03,13.021,50.14,13.362,50.36,13.604C50.591,13.868,50.954,14,51.449,14L52.406,14L52.406,12.966L51.658,12.966C51.526,12.966,51.438,12.933,51.372,12.867C51.306,12.79,51.284,12.691,51.284,12.559L51.284,9.347L52.549,9.347L52.549,8.313L51.284,8.313L51.284,6.476ZM58.929,6.476L57.675,6.993L57.675,8.313L56.652,8.313L56.652,9.347L57.675,9.347L57.675,12.559C57.675,13.021,57.785,13.362,58.005,13.604C58.236,13.868,58.599,14,59.094,14L60.051,14L60.051,12.966L59.303,12.966C59.171,12.966,59.083,12.933,59.017,12.867C58.951,12.79,58.929,12.691,58.929,12.559L58.929,9.347L60.194,9.347L60.194,8.313L58.929,8.313L58.929,6.476ZM63.769,8.159C62.9,8.159,62.207,8.434,61.69,9.006C61.162,9.567,60.909,10.282,60.909,11.162C60.909,12.031,61.162,12.746,61.679,13.296C62.207,13.868,62.9,14.154,63.769,14.154C64.62700000000001,14.154,65.331,13.868,65.85900000000001,13.296C66.36500000000001,12.746,66.62899999999999,12.031,66.62899999999999,11.162C66.62899999999999,10.282,66.36500000000001,9.567,65.848,9.006C65.32,8.434,64.62700000000001,8.159,63.769,8.159ZM63.769,9.182C64.286,9.182,64.693,9.38,64.979,9.798C65.221,10.15,65.35300000000001,10.612,65.35300000000001,11.162C65.35300000000001,11.701,65.221,12.152,64.979,12.515C64.693,12.922,64.286,13.131,63.769,13.131C63.241,13.131,62.845,12.922,62.559,12.515C62.317,12.163,62.196,11.712,62.196,11.162C62.196,10.612,62.317,10.15,62.559,9.798C62.845,9.38,63.241,9.182,63.769,9.182ZM70.787,6.146L73.042,14L74.417,14L75.957,8.093L76.001,8.093L77.53,14L78.894,14L81.16,6.146L79.708,6.146L78.234,12.119L78.19,12.119L76.639,6.146L75.308,6.146L73.757,12.119L73.713,12.119L72.239,6.146L70.787,6.146ZM84.46,8.159C83.734,8.159,83.162,8.28,82.744,8.544C82.249,8.83,81.941,9.292,81.82,9.919L83.063,10.018C83.129,9.721,83.294,9.501,83.536,9.358C83.745,9.226,84.02,9.171,84.372,9.171C85.186,9.171,85.593,9.534,85.593,10.282L85.593,10.502L84.35,10.535C83.514,10.557,82.865,10.733,82.403,11.063C81.897,11.404,81.655,11.899,81.655,12.537C81.655,13.01,81.831,13.395,82.183,13.703C82.524,14,82.986,14.154,83.58,14.154C84.075,14.154,84.504,14.066,84.867,13.901C85.186,13.747,85.461,13.538,85.681,13.252L85.681,14L86.847,14L86.847,10.37C86.847,9.677,86.671,9.149,86.319,8.786C85.923,8.368,85.296,8.159,84.46,8.159ZM85.593,11.404L85.593,11.69C85.593,12.13,85.417,12.493,85.087,12.779C84.757,13.054,84.35,13.197,83.866,13.197C83.591,13.197,83.371,13.12,83.195,12.988C83.019,12.856,82.942,12.691,82.942,12.493C82.942,11.811,83.437,11.459,84.438,11.437L85.593,11.404ZM88.277,5.992L88.277,14L89.531,14L89.531,5.992L88.277,5.992ZM91.071,5.992L91.071,14L92.325,14L92.325,5.992L91.071,5.992ZM96.175,8.159C95.328,8.159,94.657,8.445,94.173,9.028C93.667,9.6,93.425,10.304,93.425,11.151C93.425,12.097,93.689,12.834,94.217,13.373C94.712,13.89,95.383,14.154,96.23,14.154C96.989,14.154,97.616,13.934,98.122,13.505C98.518,13.153,98.782,12.702,98.914,12.174L97.66,12.174C97.506,12.493,97.341,12.724,97.154,12.867C96.912,13.043,96.604,13.131,96.219,13.131C95.768,13.131,95.416,12.988,95.174,12.713C94.932,12.438,94.789,12.031,94.745,11.503L99.002,11.503C99.002,10.48,98.771,9.677,98.32,9.105C97.825,8.467,97.11,8.159,96.175,8.159ZM96.208,9.182C97.088,9.182,97.583,9.633,97.693,10.557L94.767,10.557C94.844,10.106,94.998,9.765,95.229,9.534C95.471,9.292,95.79,9.182,96.208,9.182ZM101.774,6.476L100.52,6.993L100.52,8.313L99.497,8.313L99.497,9.347L100.52,9.347L100.52,12.559C100.52,13.021,100.63,13.362,100.85,13.604C101.081,13.868,101.444,14,101.939,14L102.896,14L102.896,12.966L102.148,12.966C102.016,12.966,101.928,12.933,101.862,12.867C101.796,12.79,101.774,12.691,101.774,12.559L101.774,9.347L103.039,9.347L103.039,8.313L101.774,8.313L101.774,6.476Z" fill="#000000" fill-opacity="1"/></g></g></svg>