<svg xmlns="http://www.w3.org/2000/svg" xmlns:xlink="http://www.w3.org/1999/xlink" fill="none" version="1.1" width="28" height="28" viewBox="0 0 28 28"><defs><clipPath id="master_svg0_10_971"><rect x="0" y="0" width="28" height="28" rx="0"/></clipPath></defs><g clip-path="url(#master_svg0_10_971)"><g><path d="M2.3333332538604736,7.000003015441894C2.3333332538604736,6.355667015441894,2.8556672538604735,5.8333330154418945,3.5000032538604735,5.8333330154418945C3.5000032538604735,5.8333330154418945,3.5116632538604735,5.8333330154418945,3.5116632538604735,5.8333330154418945C4.155993253860474,5.8333330154418945,4.678333253860474,6.355667015441894,4.678333253860474,7.000003015441894C4.678333253860474,7.644323015441895,4.155993253860474,8.166663015441895,3.5116632538604735,8.166663015441895C3.5116632538604735,8.166663015441895,3.5000032538604735,8.166663015441895,3.5000032538604735,8.166663015441895C2.8556672538604735,8.166663015441895,2.3333332538604736,7.644323015441895,2.3333332538604736,7.000003015441894C2.3333332538604736,7.000003015441894,2.3333332538604736,7.000003015441894,2.3333332538604736,7.000003015441894ZM8.166663253860474,7.000003015441894C8.166663253860474,6.355667015441894,8.689003253860474,5.8333330154418945,9.333333253860474,5.8333330154418945C9.333333253860474,5.8333330154418945,24.500033253860472,5.8333330154418945,24.500033253860472,5.8333330154418945C25.144333253860474,5.8333330154418945,25.666633253860475,6.355667015441894,25.666633253860475,7.000003015441894C25.666633253860475,7.644323015441895,25.144333253860474,8.166663015441895,24.500033253860472,8.166663015441895C24.500033253860472,8.166663015441895,9.333333253860474,8.166663015441895,9.333333253860474,8.166663015441895C8.689003253860474,8.166663015441895,8.166663253860474,7.644323015441895,8.166663253860474,7.000003015441894C8.166663253860474,7.000003015441894,8.166663253860474,7.000003015441894,8.166663253860474,7.000003015441894ZM2.3333332538604736,14.000003015441894C2.3333332538604736,13.355673015441894,2.8556672538604735,12.833333015441895,3.5000032538604735,12.833333015441895C3.5000032538604735,12.833333015441895,3.5116632538604735,12.833333015441895,3.5116632538604735,12.833333015441895C4.155993253860474,12.833333015441895,4.678333253860474,13.355673015441894,4.678333253860474,14.000003015441894C4.678333253860474,14.644323015441895,4.155993253860474,15.166663015441895,3.5116632538604735,15.166663015441895C3.5116632538604735,15.166663015441895,3.5000032538604735,15.166663015441895,3.5000032538604735,15.166663015441895C2.8556672538604735,15.166663015441895,2.3333332538604736,14.644323015441895,2.3333332538604736,14.000003015441894C2.3333332538604736,14.000003015441894,2.3333332538604736,14.000003015441894,2.3333332538604736,14.000003015441894ZM8.166663253860474,14.000003015441894C8.166663253860474,13.355673015441894,8.689003253860474,12.833333015441895,9.333333253860474,12.833333015441895C9.333333253860474,12.833333015441895,24.500033253860472,12.833333015441895,24.500033253860472,12.833333015441895C25.144333253860474,12.833333015441895,25.666633253860475,13.355673015441894,25.666633253860475,14.000003015441894C25.666633253860475,14.644323015441895,25.144333253860474,15.166663015441895,24.500033253860472,15.166663015441895C24.500033253860472,15.166663015441895,9.333333253860474,15.166663015441895,9.333333253860474,15.166663015441895C8.689003253860474,15.166663015441895,8.166663253860474,14.644323015441895,8.166663253860474,14.000003015441894C8.166663253860474,14.000003015441894,8.166663253860474,14.000003015441894,8.166663253860474,14.000003015441894ZM2.3333332538604736,21.000033015441893C2.3333332538604736,20.355633015441896,2.8556672538604735,19.833333015441895,3.5000032538604735,19.833333015441895C3.5000032538604735,19.833333015441895,3.5116632538604735,19.833333015441895,3.5116632538604735,19.833333015441895C4.155993253860474,19.833333015441895,4.678333253860474,20.355633015441896,4.678333253860474,21.000033015441893C4.678333253860474,21.644333015441894,4.155993253860474,22.166633015441896,3.5116632538604735,22.166633015441896C3.5116632538604735,22.166633015441896,3.5000032538604735,22.166633015441896,3.5000032538604735,22.166633015441896C2.8556672538604735,22.166633015441896,2.3333332538604736,21.644333015441894,2.3333332538604736,21.000033015441893C2.3333332538604736,21.000033015441893,2.3333332538604736,21.000033015441893,2.3333332538604736,21.000033015441893ZM8.166663253860474,21.000033015441893C8.166663253860474,20.355633015441896,8.689003253860474,19.833333015441895,9.333333253860474,19.833333015441895C9.333333253860474,19.833333015441895,24.500033253860472,19.833333015441895,24.500033253860472,19.833333015441895C25.144333253860474,19.833333015441895,25.666633253860475,20.355633015441896,25.666633253860475,21.000033015441893C25.666633253860475,21.644333015441894,25.144333253860474,22.166633015441896,24.500033253860472,22.166633015441896C24.500033253860472,22.166633015441896,9.333333253860474,22.166633015441896,9.333333253860474,22.166633015441896C8.689003253860474,22.166633015441896,8.166663253860474,21.644333015441894,8.166663253860474,21.000033015441893C8.166663253860474,21.000033015441893,8.166663253860474,21.000033015441893,8.166663253860474,21.000033015441893Z" fill-rule="evenodd" fill="#FFFFFF" fill-opacity="1"/></g></g></svg>